<svg xmlns="http://www.w3.org/2000/svg" xmlns:xlink="http://www.w3.org/1999/xlink" viewBox="0,0,256,256" width="64px" height="64px" fill-rule="nonzero"><g fill-opacity="0" fill="#ffffff" fill-rule="nonzero" stroke="none" stroke-width="1" stroke-linecap="butt" stroke-linejoin="miter" stroke-miterlimit="10" stroke-dasharray="" stroke-dashoffset="0" font-family="none" font-weight="none" font-size="none" text-anchor="none" style="mix-blend-mode: normal"><path d="M0,256v-256h256v256z" id="bgRectangle"></path></g><g fill="none" fill-rule="nonzero" stroke="none" stroke-width="1" stroke-linecap="butt" stroke-linejoin="miter" stroke-miterlimit="10" stroke-dasharray="" stroke-dashoffset="0" font-family="none" font-weight="none" font-size="none" text-anchor="none" style="mix-blend-mode: normal"><g transform="scale(0.5,0.5)"><path d="M504.1,256c0,-137 -111.1,-248.1 -248.1,-248.1c-137,0 -248.1,111.1 -248.1,248.1c0,137 111.1,248.1 248.1,248.1c137,0 248.1,-111.1 248.1,-248.1z" fill="#03503e"></path><path d="M416.2,275.3v-38.6l-36.6,-11.5c-3.1,-12.4 -8,-24.1 -14.5,-34.8l17.8,-34.1l-27.3,-27.3l-34.2,17.8c-10.6,-6.4 -22.2,-11.2 -34.6,-14.3l-11.6,-36.8h-38.7l-11.6,36.8c-12.3,3.1 -24,7.9 -34.6,14.3l-33.9,-17.8l-27.4,27.4l17.8,34.1c-6.4,10.7 -11.4,22.3 -14.5,34.8l-36.6,11.5v38.6l36.4,11.5c3.1,12.5 8,24.3 14.5,35.1l-17.6,33.6l27.3,27.3l33.7,-17.6c10.8,6.5 22.7,11.5 35.3,14.6l11.4,36.2h38.7l11.4,-36.2c12.6,-3.1 24.4,-8.1 35.3,-14.6l33.7,17.6l27.3,-27.3l-17.6,-33.8c6.5,-10.8 11.4,-22.6 14.5,-35.1zM256,340.8c-46.7,0 -84.6,-37.9 -84.6,-84.6c0,-46.7 37.9,-84.6 84.6,-84.6c46.7,0 84.5,37.9 84.5,84.6c0,46.8 -37.8,84.6 -84.5,84.6z" fill="#ffffff"></path></g></g></svg>